<svg xmlns="http://www.w3.org/2000/svg" viewBox="0 0 512 512" role="img" aria-label="BENARIAN app icon">
  <defs>
    <linearGradient id="bg" x1="0" y1="0" x2="1" y2="1">
      <stop offset="0" stop-color="#242424"/>
      <stop offset="0.5" stop-color="#080808"/>
      <stop offset="1" stop-color="#15110b"/>
    </linearGradient>
    <linearGradient id="gold" x1="0" y1="0" x2="1" y2="1">
      <stop offset="0" stop-color="#fff0b0"/>
      <stop offset="0.24" stop-color="#d6a23f"/>
      <stop offset="0.52" stop-color="#fff1a6"/>
      <stop offset="0.76" stop-color="#b77a20"/>
      <stop offset="1" stop-color="#f2c666"/>
    </linearGradient>
    <filter id="shadow" x="-30%" y="-30%" width="160%" height="160%">
      <feDropShadow dx="0" dy="8" stdDeviation="8" flood-color="#000" flood-opacity="0.65"/>
    </filter>
  </defs>
  <rect width="512" height="512" rx="112" fill="url(#bg)"/>
  <rect x="12" y="12" width="488" height="488" rx="101" fill="none" stroke="url(#gold)" stroke-width="8"/>
  <g fill="none" stroke="url(#gold)" stroke-width="28" stroke-linecap="round" stroke-linejoin="round" filter="url(#shadow)">
    <path d="M152 116v280M152 122h92c61 0 97 27 97 72 0 36-23 61-67 69 54 7 84 35 84 78 0 50-40 75-111 75h-95"/>
    <path d="M214 165v230M214 171h68c49 0 78 23 78 61 0 30-19 50-54 57 43 6 67 29 67 65 0 42-32 62-89 62h-70"/>
  </g>
</svg>
